<?xml version="1.0" encoding="UTF-8"?>
<svg width="38px" height="36px" viewBox="0 0 38 36" version="1.1" xmlns="http://www.w3.org/2000/svg" xmlns:xlink="http://www.w3.org/1999/xlink">
    <title>Chotto Emblem</title>
    <g id="Symbols" stroke="none" stroke-width="1" fill="none" fill-rule="evenodd">
        <g id="Desktop-Nav---No-Selection" transform="translate(-682.000000, -32.000000)" fill="#FFFFFF" fill-rule="nonzero">
            <path d="M710.1846,46.3958599 L716.8536,40.0777019 C715.44,38.0544514 713.6084,36.319208 711.4728,34.9799745 L704.8038,41.3017325 L704.8038,32.359109 C702.292,31.880297 699.708,31.880297 697.1962,32.359109 L697.1962,41.2981325 L690.5272,34.9835746 C688.3916,36.3228081 686.56,38.0580515 685.1464,40.081302 L691.8154,46.39946 L682,46.39946 L682,53.6068402 L689.5886,53.6068402 L689.5886,60.8142204 L697.1962,60.8142204 L697.1962,68 L704.8038,68 L704.8038,60.8106203 L712.4114,60.8106203 L712.4114,53.6032401 L720,53.6032401 L720,46.3958599 L710.1846,46.3958599 Z M705,53 L697,53 L697,46 L705,46 L705,53 L705,53 Z" id="Chotto-Emblem"></path>
        </g>
    </g>
</svg>